<svg version="1.0" xmlns="http://www.w3.org/2000/svg" preserveAspectRatio="xMidYMid meet" viewBox="116.13 115.35 790.3 794.15">

<g transform="translate(0.000000,1024.000000) scale(0.100000,-0.100000)" fill="#000000" stroke="none">
<path d="M2530 9083 c-459 -53 -894 -331 -1137 -728 -83 -135 -126 -234 -168 -388 -57 -209 -55 -168 -55 -1229 l0 -980 952 -5 953 -5 33 -25 c18 -14 41 -40 49 -59 16 -32 15 -36 -7 -84 -13 -27 -34 -59 -46 -71 l-24 -22 -887 8 c-489 5 -919 9 -958 9 l-70 1 -3 -130 c-2 -94 1 -135 10 -147 12 -15 97 -17 962 -20 l949 -4 39 -43 c45 -52 48 -81 12 -137 -47 -73 -6 -69 -651 -72 l-583 -3 0 -259 0 -259 27 -18 c51 -34 148 -139 178 -194 27 -48 30 -63 30 -140 0 -78 -3 -91 -38 -161 -40 -82 -84 -128 -173 -179 -45 -25 -61 -29 -131 -29 -71 0 -87 4 -159 39 -98 47 -149 101 -190 203 -41 104 -40 192 5 283 43 87 113 157 176 178 l50 17 0 262 0 263 -255 -1 -255 -1 -3 -984 c-2 -1101 6 -1464 37 -1602 47 -204 121 -377 242 -559 205 -307 519 -531 879 -627 l135 -36 876 0 c728 0 879 2 892 14 16 12 17 91 17 952 0 561 4 948 9 962 6 14 26 41 46 61 55 55 115 48 165 -18 13 -16 16 -160 20 -988 4 -834 7 -970 20 -978 13 -8 157 -4 206 6 l22 4 4 952 c4 925 4 954 23 986 23 38 72 72 104 72 35 0 80 -28 101 -63 19 -31 20 -57 20 -989 0 -902 1 -958 18 -966 19 -10 206 -1 217 10 4 4 8 435 10 957 l2 950 25 39 c49 73 131 81 187 16 l31 -35 0 -959 0 -960 23 -13 c27 -18 199 -9 219 11 10 10 12 199 10 920 -1 499 1 930 4 957 5 41 13 57 46 88 32 30 46 37 80 37 34 0 47 -6 79 -39 l39 -39 0 -960 c0 -880 1 -961 17 -973 13 -12 164 -14 892 -14 l876 0 125 33 c348 92 590 244 804 502 179 215 296 452 351 705 31 144 31 110 28 1499 -3 912 -5 1087 -17 1083 -7 -3 -122 -9 -256 -13 l-242 -7 6 -45 c3 -25 6 -142 6 -261 l1 -216 61 -35 c121 -69 190 -175 196 -300 7 -145 -64 -263 -201 -335 -42 -22 -77 -45 -77 -50 0 -24 -135 1 -219 40 -138 65 -212 168 -228 315 -13 129 76 289 189 343 l53 25 -3 261 -3 261 -598 0 c-592 0 -599 0 -625 21 -63 50 -76 141 -27 199 l29 35 973 5 c536 3 975 7 977 8 1 1 2 65 2 143 l0 141 -964 -4 c-962 -3 -965 -3 -993 18 -39 28 -78 103 -70 135 4 14 21 42 40 63 l33 39 514 -2 c283 -1 723 1 978 5 l463 7 -4 996 c-3 913 -5 1002 -21 1071 -72 302 -217 587 -396 774 -143 150 -339 293 -496 360 -87 38 -253 88 -354 107 -48 9 -285 11 -929 10 -475 -2 -870 -5 -877 -8 -12 -4 -14 -81 -15 -422 0 -229 -1 -532 -2 -673 l-2 -257 -29 -30 c-45 -47 -86 -57 -134 -32 -22 11 -50 33 -62 48 l-23 28 7 658 c5 499 4 662 -5 673 -14 17 -199 20 -230 4 -18 -10 -19 -29 -19 -682 l0 -670 -39 -39 c-29 -29 -47 -39 -70 -39 -40 0 -83 22 -110 56 -21 26 -21 32 -21 693 0 506 -3 670 -12 679 -15 15 -175 16 -212 2 l-26 -10 0 -674 0 -674 -42 -37 c-39 -33 -47 -36 -88 -32 -34 4 -51 13 -76 39 -44 48 -47 94 -39 631 3 249 2 522 -2 607 l-8 155 -100 3 c-55 2 -111 0 -124 -3 l-24 -6 7 -648 c8 -716 10 -691 -55 -745 -27 -23 -40 -27 -72 -23 -21 3 -50 16 -64 29 -55 51 -53 26 -53 721 0 642 0 644 -21 663 -20 18 -50 19 -838 20 -449 1 -832 0 -851 -3z m319 -502 c110 -41 232 -142 288 -238 59 -102 78 -247 47 -367 -24 -95 -89 -209 -147 -261 -66 -60 -174 -111 -266 -126 -209 -35 -448 86 -540 273 -33 67 -61 177 -61 244 -1 213 168 429 379 486 86 24 223 19 300 -11z m4846 2 c71 -27 194 -113 244 -169 96 -109 136 -259 108 -399 -19 -91 -64 -193 -109 -244 -66 -76 -208 -157 -316 -180 -242 -51 -500 99 -583 340 -29 86 -30 236 -2 325 51 158 202 299 366 340 72 19 228 12 292 -13z m-3835 -77 c141 -70 226 -219 202 -355 -27 -149 -103 -238 -249 -291 -84 -30 -151 -25 -240 21 -118 60 -186 177 -187 324 -1 101 24 161 98 234 75 74 148 103 246 98 57 -3 88 -10 130 -31z m2750 2 c69 -32 142 -106 178 -178 35 -72 37 -185 3 -271 -56 -144 -211 -244 -342 -219 -170 32 -287 166 -297 340 -2 41 1 94 7 117 25 93 126 197 221 228 67 22 163 15 230 -17z m1899 -149 c52 -29 74 -64 73 -114 -1 -93 -60 -149 -150 -142 -116 8 -168 130 -94 219 49 58 111 71 171 37z m-6630 -27 c62 -59 68 -132 14 -187 -68 -68 -149 -69 -214 -4 -33 33 -39 45 -39 82 0 83 66 147 152 147 41 0 52 -5 87 -38z m-17 -408 c39 -20 78 -82 78 -124 0 -43 -39 -104 -80 -125 -64 -33 -187 -6 -224 49 -28 43 -29 73 -6 120 43 89 145 124 232 80z m6679 3 c39 -26 79 -90 79 -128 0 -30 -59 -103 -101 -124 -33 -18 -101 -20 -132 -4 -38 20 -76 61 -87 95 -9 27 -8 41 8 76 44 98 154 138 233 85z m-6664 -510 c4 -7 26 -24 48 -37 154 -91 230 -233 204 -377 -21 -115 -80 -200 -176 -255 l-53 -30 0 -219 0 -219 583 0 c560 0 583 -1 614 -20 35 -21 63 -66 63 -103 0 -37 -55 -115 -87 -123 -15 -4 -314 -4 -665 -1 -668 7 -677 7 -721 51 -15 16 -17 48 -17 324 l0 307 -54 28 c-88 46 -129 88 -166 169 -28 60 -34 85 -33 138 0 83 30 162 91 243 51 67 106 103 187 123 69 17 172 18 182 1z m6675 -14 c48 -15 144 -79 185 -124 12 -13 34 -51 50 -84 39 -84 39 -194 1 -277 -36 -78 -106 -150 -173 -179 l-54 -24 -3 -319 -3 -319 -27 -20 c-27 -20 -40 -20 -668 -20 -352 1 -664 4 -692 8 -100 14 -156 108 -107 180 13 19 33 39 44 45 15 8 206 12 621 13 l599 2 3 216 2 215 -61 35 c-132 74 -190 198 -168 358 13 87 39 141 100 206 98 104 211 132 351 88z m-2942 -78 c119 -20 247 -58 325 -97 224 -113 424 -303 534 -509 90 -168 132 -340 132 -544 1 -271 -70 -478 -229 -673 l-44 -54 54 -57 c30 -31 71 -79 92 -108 50 -71 119 -220 150 -329 70 -240 46 -565 -58 -789 -125 -271 -402 -500 -741 -614 -171 -57 -231 -63 -580 -56 -165 4 -607 7 -982 8 -671 2 -682 2 -709 23 -15 11 -36 32 -47 46 -18 24 -19 81 -23 1853 -4 1301 -2 1836 6 1854 6 14 25 37 43 49 l32 24 975 -5 c832 -5 989 -8 1070 -22z m-3095 -59 c40 -43 46 -78 44 -266 l-1 -145 136 -3 136 -3 0 174 c0 165 1 176 23 208 44 65 122 79 178 32 54 -46 56 -61 51 -356 l-4 -268 -26 -17 c-33 -22 -194 -27 -480 -17 l-202 7 -31 29 -30 28 3 269 c4 298 5 302 71 342 50 31 94 26 132 -14z m5309 20 c18 -7 42 -26 54 -41 21 -27 22 -36 22 -310 0 -266 -1 -283 -19 -299 -34 -31 -82 -34 -405 -27 l-314 6 -26 24 -26 24 0 262 0 261 30 41 c65 88 172 78 209 -20 6 -16 11 -99 11 -188 l0 -159 84 0 c45 0 111 -3 145 -6 l61 -7 0 187 c0 115 4 195 11 208 11 21 82 57 112 58 10 0 32 -6 51 -14z m-215 -2585 c170 -53 272 -177 273 -331 1 -174 -123 -324 -310 -376 -54 -15 -71 -16 -128 -5 -138 25 -238 100 -299 225 -83 169 -44 351 95 434 118 70 252 90 369 53z m-4576 -45 c55 -37 57 -50 50 -315 l-6 -242 -34 -29 c-27 -24 -43 -30 -80 -30 -55 0 -110 31 -119 67 -4 14 -5 94 -2 178 l5 154 -144 3 -143 3 0 -178 c0 -194 -6 -223 -55 -245 -58 -26 -123 -2 -159 59 -17 29 -20 59 -24 270 l-5 236 46 47 45 47 298 -3 c274 -3 301 -5 327 -22z m-245 -1021 c93 -22 160 -57 231 -121 70 -64 131 -148 162 -226 30 -74 38 -257 15 -347 -36 -140 -141 -267 -271 -327 -176 -81 -277 -81 -441 0 -171 85 -278 234 -310 431 -31 197 -1 302 127 439 77 82 146 128 230 150 71 19 178 19 257 1z m4906 -17 c92 -30 113 -44 195 -127 122 -122 171 -234 171 -391 0 -103 -16 -165 -65 -258 -53 -102 -117 -163 -228 -217 -165 -80 -259 -90 -386 -42 -237 88 -370 285 -371 548 0 140 49 261 150 372 73 80 151 117 300 141 48 8 173 -6 234 -26z m828 -278 c71 -20 124 -101 107 -164 -10 -35 -58 -87 -103 -111 -53 -29 -118 -14 -171 39 -72 73 -67 155 13 209 59 40 89 45 154 27z m-6665 -21 c57 -28 83 -62 83 -111 0 -67 -41 -123 -113 -153 -49 -20 -95 -12 -147 26 -78 57 -103 141 -57 193 55 63 156 83 234 45z m1980 -130 c85 -41 138 -141 115 -217 -24 -78 -121 -162 -206 -177 -71 -12 -183 64 -233 159 -38 72 18 170 129 225 74 37 133 40 195 10z m2717 10 c49 -14 129 -87 157 -146 19 -38 20 -50 11 -82 -17 -53 -78 -120 -136 -147 -69 -32 -150 -33 -196 -1 -120 81 -132 216 -30 318 61 61 120 78 194 58z m-4667 -622 c68 -35 103 -107 89 -183 -10 -50 -88 -129 -143 -143 -80 -22 -159 17 -194 93 -52 114 10 235 130 256 40 7 72 1 118 -23z m6596 22 c44 -12 102 -59 123 -102 22 -42 20 -110 -6 -151 -27 -45 -83 -94 -116 -102 -69 -17 -165 50 -199 140 -42 109 28 213 150 225 6 0 27 -4 48 -10z m-1816 -168 c75 -36 142 -102 179 -177 l27 -56 183 7 c280 11 297 4 298 -128 l1 -70 -40 -21 c-37 -19 -59 -21 -257 -24 l-217 -3 -32 -51 c-37 -57 -108 -109 -192 -138 -70 -25 -109 -25 -186 -1 -126 39 -211 114 -251 221 -19 50 -22 74 -18 143 6 99 35 165 106 236 111 111 248 132 399 62z m-2821 -2 c78 -37 144 -101 181 -177 25 -50 28 -68 28 -152 0 -78 -4 -104 -23 -145 -84 -182 -322 -249 -506 -141 -46 27 -101 83 -118 122 -11 23 -16 24 -117 25 -58 0 -163 4 -233 8 -106 5 -132 10 -155 27 -41 30 -51 81 -29 148 24 77 39 81 287 73 l196 -7 18 48 c11 28 40 68 72 100 111 112 259 138 399 71z m-1271 -180 c50 -44 65 -78 65 -147 0 -155 -157 -235 -257 -130 -62 66 -76 119 -47 186 46 112 164 156 239 91z m5251 -1 c62 -42 86 -87 81 -150 -10 -122 -152 -200 -248 -135 -84 56 -104 153 -50 239 39 61 66 78 122 78 36 0 58 -7 95 -32z"/>
<path d="M2607 8346 c-106 -29 -182 -135 -180 -250 2 -109 49 -198 126 -238 56 -29 177 -36 229 -14 95 40 168 152 168 256 0 100 -68 203 -155 233 -64 23 -135 28 -188 13z"/>
<path d="M7470 8351 c-120 -37 -189 -127 -193 -249 -4 -164 96 -272 252 -272 115 1 198 56 246 161 24 53 27 71 22 125 -8 108 -67 183 -177 225 -52 20 -106 23 -150 10z"/>
<path d="M3663 8305 c-33 -14 -63 -59 -63 -95 0 -30 25 -75 56 -99 71 -56 174 8 174 106 0 44 -24 74 -73 92 -37 14 -55 13 -94 -4z"/>
<path d="M6443 8299 c-64 -18 -92 -94 -58 -159 19 -37 43 -50 93 -50 33 0 45 6 70 34 17 19 33 48 36 64 17 75 -58 134 -141 111z"/>
<path d="M1725 7186 c-56 -25 -70 -51 -70 -128 0 -68 1 -71 37 -104 26 -23 47 -34 68 -34 64 0 132 59 144 125 18 95 -91 182 -179 141z"/>
<path d="M8383 7170 c-110 -67 -65 -251 61 -250 48 1 76 15 106 53 37 47 44 91 22 140 -32 72 -121 99 -189 57z"/>
<path d="M3732 5436 c2 -910 5 -1657 8 -1659 3 -3 433 -2 955 3 905 7 953 8 1015 27 158 48 279 112 413 220 215 173 316 423 287 708 -26 256 -130 432 -345 584 -65 46 -83 65 -94 98 -21 59 -5 87 108 192 150 138 232 272 262 426 24 121 5 320 -42 454 -56 160 -218 349 -389 451 -72 43 -239 103 -340 121 -45 8 -322 12 -895 15 -456 1 -856 6 -888 9 l-57 6 2 -1655z m1383 1313 c223 -12 307 -30 429 -90 202 -100 305 -267 306 -495 0 -105 -14 -174 -49 -249 -69 -148 -212 -267 -381 -320 -49 -15 -106 -17 -490 -16 -239 1 -475 4 -525 7 l-90 7 -46 46 -46 46 -5 270 c-3 149 -4 359 -3 467 2 181 4 199 24 231 39 64 86 90 171 98 126 10 504 10 705 -2z m258 -1489 c116 -24 267 -102 343 -177 113 -114 154 -213 161 -389 6 -132 -13 -230 -59 -310 -63 -111 -184 -201 -349 -261 -71 -25 -85 -27 -309 -31 -231 -4 -717 12 -813 28 -37 5 -58 16 -85 44 l-37 36 -3 479 -3 478 48 53 c25 28 56 56 67 61 27 12 975 2 1039 -11z"/>
<path d="M4467 6173 c-4 -165 -4 -308 -1 -317 5 -14 52 -16 438 -16 l432 0 52 26 c72 36 158 116 190 178 35 67 36 170 3 239 -28 59 -97 122 -169 155 -64 29 -67 30 -638 34 l-301 3 -6 -302z"/>
<path d="M4477 4974 c-4 -21 -7 -171 -7 -331 l0 -293 439 0 c478 0 479 0 564 59 63 43 114 98 139 150 31 63 31 165 -2 239 -37 86 -145 165 -262 191 -24 6 -229 13 -454 17 l-411 7 -6 -39z"/>
<path d="M7443 4481 c-77 -20 -101 -56 -89 -137 11 -86 57 -120 148 -112 43 5 57 11 84 41 44 48 63 110 43 145 -28 51 -116 80 -186 63z"/>
<path d="M2570 3374 c-52 -22 -79 -52 -111 -119 -25 -52 -29 -71 -29 -151 0 -118 19 -174 81 -236 62 -62 138 -86 218 -70 105 22 173 94 206 217 57 211 -64 376 -274 375 -31 -1 -72 -8 -91 -16z"/>
<path d="M7469 3380 c-66 -11 -105 -35 -139 -82 -44 -61 -63 -134 -58 -233 3 -79 5 -87 44 -142 23 -32 60 -71 83 -88 39 -28 50 -30 125 -30 79 0 86 2 135 35 58 40 91 84 116 156 42 122 27 225 -45 307 -60 67 -155 96 -261 77z"/>
<path d="M6431 2214 c-46 -38 -58 -91 -36 -150 45 -119 193 -113 240 10 14 37 15 50 5 80 -27 83 -143 116 -209 60z"/>
<path d="M3644 2230 c-23 -12 -46 -32 -53 -46 -25 -56 -6 -138 42 -183 23 -20 33 -23 78 -19 46 5 58 11 91 46 30 33 38 49 38 79 0 51 -30 98 -79 123 -50 25 -66 25 -117 0z"/>
<path d="M1713 4210 c-44 -27 -65 -62 -65 -112 -2 -114 106 -184 192 -125 93 63 90 196 -4 241 -45 21 -84 20 -123 -4z"/>
<path d="M8369 4192 c-65 -65 -65 -134 0 -202 33 -35 43 -40 84 -40 143 0 192 211 61 266 -61 25 -102 18 -145 -24z"/>
</g>
</svg>